<?xml version="1.0" encoding="UTF-8"?> <svg xmlns="http://www.w3.org/2000/svg" viewBox="0 0 283.46 67.72"><defs><style>.cls-1{fill:#1d1d1b;}.cls-2{fill:#fff;}.cls-3{fill:#cd7546;}.cls-4{fill:#ebc469;}.cls-5{fill:#88c37f;}.cls-6{fill:#5d8bc4;}.cls-7{fill:#5258a3;}</style></defs><g id="Layer_2" data-name="Layer 2"><g id="Layer_1-2" data-name="Layer 1"><path class="cls-1" d="M267.5,24.9l2.92-12.45H194c-4.48,0-7.66,2.59-8.73,7.12l-1.25,5.33H172.84l2.93-12.45H96.49L99.42,0H23a8.53,8.53,0,0,0-6.37,2.55,8.1,8.1,0,0,0-.93,1.17,9.93,9.93,0,0,0-1,2c-.08.23-.16.47-.23.71s-.13.47-.19.71L0,67.72H29.3a8.31,8.31,0,0,0,8-5,5.09,5.09,0,0,0,.31.45,7.6,7.6,0,0,0,6,2.81A10,10,0,0,0,50,63.49,7.61,7.61,0,0,0,55.77,66a9.91,9.91,0,0,0,6.39-2.5A7.63,7.63,0,0,0,67.91,66a10,10,0,0,0,6.39-2.5A7.61,7.61,0,0,0,80.05,66a10,10,0,0,0,6.39-2.5A7.61,7.61,0,0,0,92.18,66a9.58,9.58,0,0,0,4.87-1.4c.1.18.21.36.32.53a5.34,5.34,0,0,0,1.15,1.22,7.23,7.23,0,0,0,4.59,1.38H266.34c4.49,0,7.67-2.6,8.73-7.13l8.39-35.69Zm-7.64,26.81-.14,0h0l.14,0Z"></path><path class="cls-2" d="M55.41,1.54c-2.38,0-3.75,1.16-4.34,3.65L45,31a3.05,3.05,0,0,0,.1,2.38,2.7,2.7,0,0,0,2,.57H71.4l1.87-8H59.88a2,2,0,0,1-2-2.52l.19-.82a1.5,1.5,0,0,1,1.46-1.16H74.33L76.09,14H62a1.51,1.51,0,0,1-1.47-1.84l.2-.82A2.3,2.3,0,0,1,63,9.5h14.1l1.88-8Z"></path><path class="cls-2" d="M40.64,38.42a1.49,1.49,0,0,1-1.17-.57,1.51,1.51,0,0,1-.29-1.28l8.24-35H23.81c-2.38,0-3.75,1.16-4.34,3.65L10.15,44.84a3,3,0,0,0,.11,2.38,2.69,2.69,0,0,0,2,.57H23.52A1.51,1.51,0,0,1,25,49.64l-.35,1.49a1.51,1.51,0,0,1-1.47,1.16H8.4l-1.85,8H30.16c2.37,0,3.75-1.15,4.33-3.64L36.27,49a1.51,1.51,0,0,1,1.46-1.17H68.14l2.2-9.37Zm-7-25.59L27.9,37.26a1.51,1.51,0,0,1-1.46,1.16h-.82a2.35,2.35,0,0,1-1.81-.68,2.09,2.09,0,0,1-.47-1.67l0-.18L28.8,12.82a1.8,1.8,0,0,1,.05-.19,2.39,2.39,0,0,1,2-1.62,1,1,0,0,1,.24,0h1.08a1.51,1.51,0,0,1,1.18.57A1.49,1.49,0,0,1,33.64,12.83Z"></path><path class="cls-2" d="M88.82,26a1.51,1.51,0,0,1,1.47-1.16h14.77L107.62,14H93.55a1.51,1.51,0,0,1-1.18-.57,1.49,1.49,0,0,1-.28-1.27L94.58,1.54H83.46L73.28,44.84a3.05,3.05,0,0,0,.1,2.38,2.7,2.7,0,0,0,2,.57H96.19c2.38,0,3.75-1.15,4.34-3.64l3.24-13.78H92.65L91,37.26a1.51,1.51,0,0,1-1.47,1.16h-.81a2.21,2.21,0,0,1-1.84-.78,2.42,2.42,0,0,1-.33-2.08Z"></path><path class="cls-2" d="M154.56,14.57a2.66,2.66,0,0,0-2-.58H131.75c-2.37,0-3.75,1.16-4.33,3.64l-6.76,28.74h11.12l.7-3a1.5,1.5,0,0,1,1.46-1.16h1.76a1.51,1.51,0,0,1,1.18.57,1.47,1.47,0,0,1,.28,1.28l-.53,2.28h11.12L154.67,17A3,3,0,0,0,154.56,14.57Zm-13.2,11.66L139,36.51a1.51,1.51,0,0,1-1.47,1.16h-1.76a1.48,1.48,0,0,1-1.17-.57,1.51,1.51,0,0,1-.29-1.28l2.42-10.28a2.7,2.7,0,0,1,2.56-2.11,2.16,2.16,0,0,1,1.72.8A2.37,2.37,0,0,1,141.36,26.23Z"></path><path class="cls-2" d="M120.47,50.86h-3.18a2.17,2.17,0,0,1-1.75-.79,2.3,2.3,0,0,1-.37-2l8-34.08H112.06L101.88,57.28a3,3,0,0,0,.11,2.38,2.66,2.66,0,0,0,2,.58h40.53l2.2-9.38Z"></path><path class="cls-2" d="M169.89,26.44a1.49,1.49,0,0,1-1.17-.57,1.51,1.51,0,0,1-.29-1.28L170.92,14H159.8L149.62,57.28a3,3,0,0,0,.11,2.38,2.66,2.66,0,0,0,2,.58h20.84c2.37,0,3.75-1.16,4.33-3.64l3.24-13.79H169l-1.62,6.9a1.5,1.5,0,0,1-1.46,1.15h-.81a2.21,2.21,0,0,1-1.84-.78,2.39,2.39,0,0,1-.33-2.08l2.24-9.54a1.51,1.51,0,0,1,1.46-1.16h14.78L184,26.44Z"></path><path class="cls-2" d="M194.88,14c-2.37,0-3.75,1.16-4.34,3.64l-6.06,25.78a3,3,0,0,0,.11,2.38,2.66,2.66,0,0,0,2,.58h24.32l1.87-7.95h-13.4a2,2,0,0,1-2-2.53l.19-.81A1.51,1.51,0,0,1,199,33.92H213.8l1.76-7.48H201.49A1.5,1.5,0,0,1,200,24.59l.19-.81a2.3,2.3,0,0,1,2.3-1.84h14.1l1.87-8Z"></path><path class="cls-2" d="M249.22,14.57a2.66,2.66,0,0,0-2-.58H226.41c-2.37,0-3.75,1.16-4.33,3.64L216,43.39a3,3,0,0,0,.1,2.38,2.66,2.66,0,0,0,2,.58h11.3a1.51,1.51,0,0,1,1.47,1.85l-.14.56a2.68,2.68,0,0,1-2.56,2.1H182.94l-2.21,9.38h54.94c2.37,0,3.75-1.16,4.33-3.64L245.32,34a3,3,0,0,0-.11-2.38,2.66,2.66,0,0,0-2-.58h-11.3a1.5,1.5,0,0,1-1.46-1.85l.86-3.65a2.69,2.69,0,0,1,2.56-2.11,2.14,2.14,0,0,1,1.71.8,2.34,2.34,0,0,1,.41,2v0h11.12L249.32,17A3,3,0,0,0,249.22,14.57Z"></path><path class="cls-2" d="M264.55,26.44a1.5,1.5,0,0,1-1.46-1.85L265.58,14H254.46L244.28,57.28a3,3,0,0,0,.11,2.38,2.66,2.66,0,0,0,2,.58H267.2c2.37,0,3.75-1.16,4.33-3.64l3.24-13.79H263.65L262,49.71a1.5,1.5,0,0,1-1.46,1.15h-.81a2.21,2.21,0,0,1-1.84-.78,2.4,2.4,0,0,1-.34-2.08l2.25-9.54a1.5,1.5,0,0,1,1.46-1.16h14.78l2.55-10.86Z"></path><ellipse class="cls-3" cx="44.14" cy="55.44" rx="5.48" ry="4.33" transform="translate(-25.68 43.35) rotate(-41.65)"></ellipse><ellipse class="cls-4" cx="56.28" cy="55.44" rx="5.48" ry="4.33" transform="translate(-22.62 51.41) rotate(-41.65)"></ellipse><ellipse class="cls-5" cx="68.42" cy="55.44" rx="5.48" ry="4.33" transform="translate(-19.55 59.48) rotate(-41.65)"></ellipse><ellipse class="cls-6" cx="80.55" cy="55.44" rx="5.48" ry="4.33" transform="translate(-16.48 67.54) rotate(-41.65)"></ellipse><ellipse class="cls-7" cx="92.69" cy="55.44" rx="5.48" ry="4.33" transform="translate(-13.41 75.61) rotate(-41.65)"></ellipse></g></g></svg> 